<svg width="50" height="50" viewBox="0 0 50 50" fill="none" xmlns="http://www.w3.org/2000/svg">
<g clip-path="url(#clip0_2141_194)">
<path d="M35.0414 35.7752C35.0746 35.7728 35.108 35.7728 35.1412 35.7752H38.4592C38.5245 35.8464 38.5679 35.9349 38.584 36.0302C39.1761 37.8036 39.7715 39.5769 40.3702 41.3502L42.2712 47.0002C42.2712 47.0852 42.3311 47.1652 42.376 47.2802C42.4209 47.1702 42.4558 47.0952 42.4808 47.0202L44.5764 40.8352L46.208 36.0002C46.2379 35.9152 46.2728 35.8302 46.3078 35.7402H49.6258H49.7405C49.7554 35.7648 49.7656 35.7919 49.7705 35.8202C49.7705 40.4302 49.7705 45.0402 49.7705 49.6502C49.7739 49.6801 49.7739 49.7103 49.7705 49.7402C49.7705 49.7402 49.7356 49.7402 49.7206 49.7402H47.5801H47.4753C47.4753 49.6952 47.4753 49.6552 47.4753 49.6202C47.4753 49.5852 47.4753 49.4552 47.4753 49.3702C47.4753 45.8669 47.4753 42.3669 47.4753 38.8702C47.489 38.7607 47.4771 38.6494 47.4404 38.5452C47.2757 38.9452 47.166 39.3252 47.0362 39.6902C46.9065 40.0552 46.7818 40.4402 46.652 40.8152C46.5223 41.1902 46.4026 41.5502 46.2728 41.9152C46.1431 42.2802 46.0184 42.6602 45.8886 43.0352L45.5044 44.1602C45.3747 44.5352 45.25 44.9102 45.1202 45.2802C44.9905 45.6502 44.8658 46.0302 44.7361 46.4052C44.6063 46.7802 44.4866 47.1352 44.3569 47.5052C44.2271 47.8752 44.1024 48.2502 43.9727 48.6252C43.8429 49.0002 43.7182 49.3752 43.5935 49.7402C43.3989 49.7802 41.7274 49.7952 41.2135 49.7402C41.1336 49.6852 41.1236 49.5852 41.0987 49.5052L39.8314 45.9002L37.4464 38.9002C37.4464 38.8252 37.3915 38.7502 37.3566 38.6702C37.2917 38.6702 37.3166 38.7452 37.3166 38.7752C37.3166 38.8052 37.3166 38.9402 37.3166 39.0252V49.4702C37.3166 49.5702 37.3166 49.6652 37.3166 49.7702C37.2833 49.7852 37.248 49.7953 37.2119 49.8002H35.1063H35.0464C35.0319 49.7577 35.0202 49.7143 35.0115 49.6702C35.0115 49.6052 35.0115 49.5402 35.0115 49.4752V36.0952C34.9966 35.9877 35.0068 35.8781 35.0414 35.7752Z" fill="black"/>
<path d="M14.0904 42.6603C14.1111 43.9049 13.8429 45.1373 13.3071 46.2603C12.8884 47.1256 12.2847 47.8878 11.5387 48.4927C10.7927 49.0976 9.92293 49.5304 8.99113 49.7603C8.11255 49.9899 7.20022 50.061 6.29679 49.9703C5.43093 49.8971 4.58558 49.6667 3.80202 49.2903C3.00809 48.9023 2.29999 48.3586 1.71974 47.6912C1.13949 47.0238 0.698904 46.2465 0.424118 45.4053C0.10591 44.4713 -0.0378592 43.4865 8.86526e-06 42.5003C0.0177897 41.6229 0.186586 40.7551 0.498961 39.9353C0.886731 38.8353 1.56061 37.8591 2.45095 37.1076C3.34128 36.356 4.41577 35.8563 5.56333 35.6603C6.89373 35.3816 8.27512 35.4767 9.55494 35.9353C10.5094 36.2642 11.375 36.81 12.0839 37.5299C12.7928 38.2499 13.3259 39.1245 13.6414 40.0853C13.872 40.7394 14.0098 41.4227 14.0505 42.1153C14.0705 42.3203 14.0854 42.5453 14.0904 42.6603ZM11.6855 42.6103C11.6813 42.2576 11.6446 41.9061 11.5757 41.5603C11.4739 40.9396 11.2591 40.343 10.942 39.8003C10.6641 39.3078 10.2897 38.8767 9.84123 38.533C9.39278 38.1893 8.87958 37.9401 8.33251 37.8003C7.51462 37.5864 6.65564 37.5864 5.83775 37.8003C4.8765 38.0348 4.02849 38.6013 3.44278 39.4003C3.0451 39.9221 2.7566 40.519 2.59456 41.1553C2.41528 41.8756 2.3596 42.6212 2.42991 43.3603C2.47854 43.9935 2.63374 44.6139 2.88894 45.1953C3.12023 45.7531 3.46646 46.2556 3.90497 46.6701C4.34348 47.0845 4.86439 47.4015 5.4336 47.6003C6.11915 47.8443 6.85168 47.9265 7.5741 47.8403C8.37753 47.7693 9.14548 47.476 9.79219 46.9931C10.4389 46.5101 10.9389 45.8565 11.2364 45.1053C11.553 44.3126 11.7058 43.4638 11.6855 42.6103Z" fill="black"/>
<path d="M50 7.15004C50.0215 8.31222 49.7917 9.46528 49.3264 10.53C48.9105 11.4839 48.2734 12.3245 47.4681 12.9819C46.6627 13.6394 45.7124 14.0947 44.6961 14.31C43.3112 14.6512 41.8573 14.5835 40.5099 14.115C39.5309 13.7938 38.6416 13.2449 37.9149 12.5132C37.1881 11.7814 36.6446 10.8877 36.3287 9.90504C36.0252 8.9972 35.8883 8.04178 35.9246 7.08504C35.935 6.22524 36.0832 5.3727 36.3636 4.56004C36.7403 3.438 37.4101 2.4376 38.3034 1.66291C39.1967 0.888223 40.2808 0.367545 41.443 0.155044C42.7724 -0.122799 44.1522 -0.0329226 45.4346 0.415044C46.3952 0.73898 47.2673 1.28266 47.9817 2.00299C48.6962 2.72332 49.2335 3.60051 49.5509 4.56504C49.7832 5.20858 49.9226 5.88203 49.9651 6.56504C49.98 6.80004 49.995 7.03004 50 7.15004ZM47.605 7.27004C47.605 7.00004 47.5701 6.72504 47.5402 6.45504C47.4762 5.79789 47.2901 5.15855 46.9913 4.57004C46.7364 4.04153 46.3752 3.57151 45.9305 3.18948C45.4857 2.80746 44.9669 2.52167 44.4067 2.35004C43.7029 2.13325 42.9597 2.07688 42.2313 2.18504C41.1398 2.31857 40.143 2.87271 39.4521 3.73004C38.9475 4.35316 38.6046 5.09181 38.4542 5.88004C38.3079 6.5581 38.2709 7.25525 38.3445 7.94504C38.4143 8.62968 38.6088 9.29569 38.9183 9.91004C39.3883 10.9058 40.2253 11.6801 41.2534 12.07C41.9482 12.3337 42.6948 12.4313 43.4338 12.355C44.0921 12.3036 44.7309 12.1072 45.3049 11.78C46.1749 11.2608 46.838 10.4549 47.1809 9.50004C47.4558 8.78855 47.5995 8.03297 47.605 7.27004Z" fill="black"/>
<path d="M8.26265 8.00041L8.50215 8.11041C9.16198 8.38835 9.69049 8.90902 9.97905 9.56541C10.1299 9.89462 10.2421 10.2403 10.3133 10.5954C10.5595 11.7354 10.8023 12.8721 11.0418 14.0054C11.0418 14.0954 11.0767 14.1804 11.0917 14.2854C11.051 14.2976 11.0092 14.3059 10.967 14.3104H8.77158H8.70173C8.70173 14.2604 8.65683 14.2004 8.64186 14.1404C8.44228 13.1904 8.24103 12.2404 8.03813 11.2904C7.98823 11.0454 7.91838 10.7904 7.85351 10.5704C7.83881 10.5152 7.81876 10.4617 7.79364 10.4104C7.65358 9.98841 7.39592 9.61539 7.05111 9.33542C6.7063 9.05544 6.28873 8.88021 5.84772 8.83041C5.57818 8.79302 5.30653 8.77298 5.03443 8.77041H2.96378C2.87851 8.75436 2.79032 8.76849 2.7143 8.81041C2.68437 9.06541 2.7143 9.31041 2.7143 9.59041V14.2954C2.67169 14.3067 2.62834 14.3151 2.58458 14.3204H0.444072C0.407547 14.3235 0.370828 14.3235 0.334303 14.3204V14.1754C0.331803 14.1271 0.331803 14.0787 0.334303 14.0304V0.590407C0.334303 0.490407 0.334303 0.395407 0.334303 0.285407C0.404092 0.281167 0.474073 0.281167 0.543862 0.285407H6.18701C6.84563 0.278213 7.50107 0.377833 8.12794 0.580407C8.49559 0.701353 8.84609 0.869412 9.17075 1.08041C9.89972 1.55185 10.432 2.27366 10.6676 3.11041C10.892 3.8929 10.892 4.72291 10.6676 5.50541C10.5361 5.98852 10.3047 6.4385 9.98838 6.82614C9.67204 7.21378 9.27787 7.53039 8.83146 7.75541C8.74664 7.80541 8.65683 7.84541 8.56701 7.89041L8.26265 8.00041ZM2.7143 6.66041H6.34169C6.60489 6.65005 6.86454 6.59598 7.11007 6.50041C7.41435 6.39184 7.68707 6.20944 7.90386 5.96951C8.12065 5.72958 8.27477 5.43958 8.35246 5.12541C8.41734 4.87765 8.43761 4.62029 8.41234 4.36541C8.39374 3.97601 8.26199 3.60056 8.03329 3.2852C7.80458 2.96985 7.48889 2.72835 7.12504 2.59041C6.83497 2.47184 6.52521 2.40908 6.21196 2.40541H2.99372C2.90781 2.38983 2.81921 2.40028 2.73925 2.43541C2.70433 2.68041 2.68936 4.93541 2.73925 6.47041C2.69934 6.50041 2.70932 6.57041 2.7143 6.66041Z" fill="black"/>
</g>
<defs>
<clipPath id="clip0_2141_194">
<rect width="50" height="50" fill="white"/>
</clipPath>
</defs>
</svg>
